<svg width="109" height="97" viewBox="0 0 109 97" fill="none" xmlns="http://www.w3.org/2000/svg">
<path d="M38.1146 33.948C37.3245 33.948 36.5667 34.2268 36.008 34.7229C35.4493 35.2191 35.1354 35.8921 35.1354 36.5938C35.1354 37.2955 35.4493 37.9685 36.008 38.4647C36.5667 38.9609 37.3245 39.2397 38.1146 39.2397C38.5942 39.2397 39.2169 39.3799 39.7472 39.8852C40.2834 40.3985 41.0938 41.6474 41.0938 44.5313C41.0938 47.7592 42.2675 50.2596 44.5734 51.8497C46.7333 53.3393 49.3848 53.6727 51.5208 53.6727V63.0522C51.5208 63.7539 51.8347 64.4269 52.3934 64.9231C52.9521 65.4192 53.7099 65.698 54.5 65.698C55.2901 65.698 56.0479 65.4192 56.6066 64.9231C57.1653 64.4269 57.4792 63.7539 57.4792 63.0522V53.67C59.6152 53.67 62.2667 53.3393 64.4266 51.8497C66.7325 50.2622 67.9063 47.7592 67.9063 44.5313C67.9063 41.6474 68.7166 40.3985 69.2528 39.8852C69.4591 39.6824 69.711 39.5201 69.9922 39.409C70.2733 39.2978 70.5776 39.2401 70.8854 39.2397C71.6755 39.2397 72.4333 38.9609 72.992 38.4647C73.5507 37.9685 73.8646 37.2955 73.8646 36.5938C73.8646 35.8921 73.5507 35.2191 72.992 34.7229C72.4333 34.2268 71.6755 33.948 70.8854 33.948C69.1307 33.948 66.7742 34.4745 64.8854 36.2869C62.9996 38.0887 61.9479 40.8113 61.9479 44.5313C61.9479 46.5871 61.2597 47.3359 60.7711 47.6693C60.1396 48.1085 59.0671 48.3784 57.4792 48.3784V36.5938C57.4792 35.8921 57.1653 35.2191 56.6066 34.7229C56.0479 34.2268 55.2901 33.948 54.5 33.948C53.7099 33.948 52.9521 34.2268 52.3934 34.7229C51.8347 35.2191 51.5208 35.8921 51.5208 36.5938V48.3784C49.9329 48.3784 48.8604 48.1085 48.2289 47.6693C47.7403 47.3359 47.0521 46.5871 47.0521 44.5313C47.0521 40.8086 46.0004 38.0887 44.1146 36.2869C43.3507 35.5501 42.4231 34.9619 41.3905 34.5593C40.3578 34.1567 39.2424 33.9486 38.1146 33.948ZM75.3542 76.2813V72.3126H70.8854V67.0209H75.3542V63.0522H81.3125V67.0209H85.7813V72.3126H81.3125V76.2813H75.3542Z" fill="#119586"/>
<path fill-rule="evenodd" clip-rule="evenodd" d="M61.7543 77.2337L62.365 76.8104C63.6116 79.0057 65.4153 80.9138 67.6339 82.3844C69.8526 83.8549 72.4255 84.8477 75.1499 85.2845C77.8743 85.7213 80.6757 85.5901 83.3332 84.9012C85.9907 84.2124 88.4318 82.9848 90.464 81.3151C92.4962 79.6455 94.0639 77.5794 95.0436 75.2799C96.0233 72.9803 96.3881 70.5101 96.1095 68.0639C95.8308 65.6177 94.9161 63.2625 93.4376 61.1838C91.9591 59.1051 89.9572 57.3599 87.5896 56.0856C92.8568 49.9578 96.5122 42.9993 96.1875 35.2047C96.045 31.9158 95.0311 28.7031 93.2282 25.8275C91.4253 22.952 88.8841 20.4946 85.811 18.655C79.8438 15.099 73.2002 14.7788 67.2449 16.2605C64.9966 16.8311 62.8317 17.6348 60.795 18.655C58.4891 19.8033 56.362 21.1976 54.5 22.7401C52.5876 21.1599 50.4692 19.7885 48.1901 18.655C46.1565 17.6401 43.9957 16.8409 41.7522 16.2737C35.7938 14.7947 29.1562 15.1175 23.1919 18.655C20.1178 20.494 17.5755 22.9511 15.7715 25.8267C13.9675 28.7023 12.9527 31.9153 12.8095 35.2047V35.2099C12.4103 45.5763 18.9883 54.4081 27.0351 61.7847C33.047 67.2986 40.2536 72.3178 46.6022 76.7389C48.7294 78.2206 50.7612 79.6361 52.6202 80.9776L54.4851 82.327L56.362 80.9908C58.0422 79.7975 59.8565 78.5434 61.7543 77.2337ZM68.8536 21.3564C64.1853 22.5205 59.8119 25.1558 56.7433 28.2779L54.5 30.5639L52.2537 28.2779C49.1882 25.1558 44.8147 22.5285 40.1464 21.3722C35.5346 20.2239 30.756 20.5309 26.5018 23.055C24.2141 24.4301 22.3221 26.2632 20.9783 28.4066C19.6344 30.55 18.8763 32.9438 18.7649 35.3952C18.4491 43.5708 23.6269 51.0532 31.3131 58.1043C37.0183 63.3325 43.7363 68.013 50.0074 72.3813C51.5467 73.4502 53.0482 74.5023 54.5119 75.5377C55.7532 74.6717 57.0214 73.7924 58.3163 72.8998L58.3312 72.8893L60.5567 71.3467C60.2596 68.8741 60.6207 66.374 61.611 64.0481C62.6012 61.7221 64.1928 59.6352 66.2576 57.9557C68.3224 56.2761 70.8026 55.0508 73.4983 54.3786C76.194 53.7063 79.0298 53.6059 81.7772 54.0853C87.1606 48.2036 90.5062 42.0097 90.2351 35.3978C90.1245 32.9463 89.3671 30.5521 88.0237 28.4082C86.6804 26.2643 84.7887 24.4306 82.5012 23.055L82.4923 23.0497C78.238 20.5123 73.4654 20.2081 68.8536 21.3564ZM90.25 69.6666C90.25 72.4735 88.9945 75.1654 86.7597 77.1502C84.5249 79.1349 81.4938 80.25 78.3333 80.25C75.1728 80.25 72.1418 79.1349 69.907 77.1502C67.6722 75.1654 66.4167 72.4735 66.4167 69.6666C66.4167 66.8598 67.6722 64.1679 69.907 62.1831C72.1418 60.1983 75.1728 59.0833 78.3333 59.0833C81.4938 59.0833 84.5249 60.1983 86.7597 62.1831C88.9945 64.1679 90.25 66.8598 90.25 69.6666Z" fill="#119586"/>
<path fill-rule="evenodd" clip-rule="evenodd" d="M99.1875 0.875H9.8125C7.44213 0.875 5.16884 1.71127 3.49273 3.19984C1.81663 4.68841 0.875 6.70734 0.875 8.8125V88.1875C0.875 90.2927 1.81663 92.3116 3.49273 93.8002C5.16884 95.2887 7.44213 96.125 9.8125 96.125H99.1875C101.558 96.125 103.831 95.2887 105.507 93.8002C107.183 92.3116 108.125 90.2927 108.125 88.1875V8.8125C108.125 6.70734 107.183 4.68841 105.507 3.19984C103.831 1.71127 101.558 0.875 99.1875 0.875ZM6.83333 8.8125C6.83333 8.11078 7.14721 7.4378 7.70591 6.94161C8.26461 6.44542 9.02238 6.16667 9.8125 6.16667H99.1875C99.9776 6.16667 100.735 6.44542 101.294 6.94161C101.853 7.4378 102.167 8.11078 102.167 8.8125V88.1875C102.167 88.8892 101.853 89.5622 101.294 90.0584C100.735 90.5546 99.9776 90.8333 99.1875 90.8333H9.8125C9.02238 90.8333 8.26461 90.5546 7.70591 90.0584C7.14721 89.5622 6.83333 88.8892 6.83333 88.1875V8.8125Z" fill="#119586"/>
</svg>
